<svg width="20" height="16" viewBox="0 0 20 16" fill="none" xmlns="http://www.w3.org/2000/svg">
<mask id="path-1-inside-1_290_741" fill="white">
<path d="M8.125 0C7.62772 0 7.15081 0.194505 6.79917 0.540726C6.44754 0.886947 6.25 1.35652 6.25 1.84615V2.46154H1.875C1.37772 2.46154 0.900805 2.65604 0.549175 3.00226C0.197544 3.34849 0 3.81806 0 4.30769L0 14.1538C0 14.6435 0.197544 15.1131 0.549175 15.4593C0.900805 15.8055 1.37772 16 1.875 16H18.125C18.6223 16 19.0992 15.8055 19.4508 15.4593C19.8025 15.1131 20 14.6435 20 14.1538V4.30769C20 3.81806 19.8025 3.34849 19.4508 3.00226C19.0992 2.65604 18.6223 2.46154 18.125 2.46154H13.75V1.84615C13.75 1.35652 13.5525 0.886947 13.2008 0.540726C12.8492 0.194505 12.3723 0 11.875 0H8.125ZM8.125 1.23077H11.875C12.0408 1.23077 12.1997 1.2956 12.3169 1.41101C12.4342 1.52642 12.5 1.68294 12.5 1.84615V2.46154H7.5V1.84615C7.5 1.68294 7.56585 1.52642 7.68306 1.41101C7.80027 1.2956 7.95924 1.23077 8.125 1.23077ZM10.4825 9.74031L18.75 7.57046V14.1538C18.75 14.3171 18.6842 14.4736 18.5669 14.589C18.4497 14.7044 18.2908 14.7692 18.125 14.7692H1.875C1.70924 14.7692 1.55027 14.7044 1.43306 14.589C1.31585 14.4736 1.25 14.3171 1.25 14.1538V7.56923L9.5175 9.74031C9.83366 9.82321 10.1663 9.82321 10.4825 9.74031ZM1.875 3.69231H18.125C18.2908 3.69231 18.4497 3.75714 18.5669 3.87255C18.6842 3.98796 18.75 4.14448 18.75 4.30769V6.29662L10.1612 8.55138C10.0556 8.57916 9.9444 8.57916 9.83875 8.55138L1.25 6.29662V4.30769C1.25 4.14448 1.31585 3.98796 1.43306 3.87255C1.55027 3.75714 1.70924 3.69231 1.875 3.69231Z"/>
</mask>
<path d="M8.125 0C7.62772 0 7.15081 0.194505 6.79917 0.540726C6.44754 0.886947 6.25 1.35652 6.25 1.84615V2.46154H1.875C1.37772 2.46154 0.900805 2.65604 0.549175 3.00226C0.197544 3.34849 0 3.81806 0 4.30769L0 14.1538C0 14.6435 0.197544 15.1131 0.549175 15.4593C0.900805 15.8055 1.37772 16 1.875 16H18.125C18.6223 16 19.0992 15.8055 19.4508 15.4593C19.8025 15.1131 20 14.6435 20 14.1538V4.30769C20 3.81806 19.8025 3.34849 19.4508 3.00226C19.0992 2.65604 18.6223 2.46154 18.125 2.46154H13.75V1.84615C13.75 1.35652 13.5525 0.886947 13.2008 0.540726C12.8492 0.194505 12.3723 0 11.875 0H8.125ZM8.125 1.23077H11.875C12.0408 1.23077 12.1997 1.2956 12.3169 1.41101C12.4342 1.52642 12.5 1.68294 12.5 1.84615V2.46154H7.5V1.84615C7.5 1.68294 7.56585 1.52642 7.68306 1.41101C7.80027 1.2956 7.95924 1.23077 8.125 1.23077ZM10.4825 9.74031L18.75 7.57046V14.1538C18.75 14.3171 18.6842 14.4736 18.5669 14.589C18.4497 14.7044 18.2908 14.7692 18.125 14.7692H1.875C1.70924 14.7692 1.55027 14.7044 1.43306 14.589C1.31585 14.4736 1.25 14.3171 1.25 14.1538V7.56923L9.5175 9.74031C9.83366 9.82321 10.1663 9.82321 10.4825 9.74031ZM1.875 3.69231H18.125C18.2908 3.69231 18.4497 3.75714 18.5669 3.87255C18.6842 3.98796 18.75 4.14448 18.75 4.30769V6.29662L10.1612 8.55138C10.0556 8.57916 9.9444 8.57916 9.83875 8.55138L1.25 6.29662V4.30769C1.25 4.14448 1.31585 3.98796 1.43306 3.87255C1.55027 3.75714 1.70924 3.69231 1.875 3.69231Z" fill="white"/>
<path d="M8.125 0V-14V0ZM6.25 2.46154V16.4615H20.25V2.46154H6.25ZM0 4.30769H-14H0ZM0 14.1538H-14H0ZM18.125 16V30V16ZM20 14.1538H34H20ZM20 4.30769H34H20ZM13.75 2.46154H-0.25V16.4615H13.75V2.46154ZM13.75 1.84615L27.75 1.84615L13.75 1.84615ZM8.125 1.23077V15.2308V1.23077ZM12.5 2.46154V16.4615H26.5V2.46154H12.5ZM7.5 2.46154H-6.5V16.4615H7.5V2.46154ZM10.4825 9.74031L14.0333 23.2825L14.0365 23.2817L10.4825 9.74031ZM18.75 7.57046H32.75V-10.5781L15.196 -5.97092L18.75 7.57046ZM1.25 14.1538H-12.75H1.25ZM1.25 7.56923L4.80589 -5.97166L-12.75 -10.5819V7.56923H1.25ZM9.5175 9.74031L5.96161 23.2812L5.96667 23.2825L9.5175 9.74031ZM1.875 3.69231V17.6923V3.69231ZM18.125 3.69231V17.6923V3.69231ZM18.75 6.29662L22.3049 19.8378L32.75 17.0957V6.29662H18.75ZM10.1612 8.55138L6.60635 -4.98976L6.6012 -4.98841L10.1612 8.55138ZM9.83875 8.55138L13.3988 -4.98841L13.3937 -4.98976L9.83875 8.55138ZM1.25 6.29662H-12.75V17.0957L-2.3049 19.8378L1.25 6.29662ZM8.125 -14C3.98413 -14 -0.0300534 -12.3824 -3.02329 -9.43521L16.6216 10.5167C14.3317 12.7714 11.2713 14 8.125 14V-14ZM-3.02329 -9.43521C-6.02388 -6.48078 -7.75 -2.42716 -7.75 1.84615H20.25C20.25 5.14021 18.919 8.25468 16.6216 10.5167L-3.02329 -9.43521ZM-7.75 1.84615V2.46154H20.25V1.84615H-7.75ZM6.25 -11.5385H1.875V16.4615H6.25V-11.5385ZM1.875 -11.5385C-2.26588 -11.5385 -6.28005 -9.92085 -9.27328 -6.97367L10.3716 12.9782C8.08167 15.2329 5.02131 16.4615 1.875 16.4615V-11.5385ZM-9.27328 -6.97367C-12.2739 -4.01925 -14 0.0343726 -14 4.30769H14C14 7.60175 12.669 10.7162 10.3716 12.9782L-9.27328 -6.97367ZM-14 4.30769V14.1538H14V4.30769H-14ZM-14 14.1538C-14 18.4272 -12.2739 22.4808 -9.27328 25.4352L10.3716 5.48334C12.669 7.74532 14 10.8598 14 14.1538H-14ZM-9.27328 25.4352C-6.28005 28.3824 -2.26587 30 1.875 30V2C5.02131 2 8.08166 3.2286 10.3716 5.48334L-9.27328 25.4352ZM1.875 30H18.125V2H1.875V30ZM18.125 30C22.2659 30 26.2801 28.3824 29.2733 25.4352L9.62837 5.48334C11.9183 3.2286 14.9787 2 18.125 2V30ZM29.2733 25.4352C32.2739 22.4808 34 18.4272 34 14.1538H6C6 10.8598 7.33104 7.74533 9.62837 5.48334L29.2733 25.4352ZM34 14.1538V4.30769H6V14.1538H34ZM34 4.30769C34 0.0343769 32.2739 -4.01924 29.2733 -6.97367L9.62837 12.9782C7.33104 10.7162 6 7.60175 6 4.30769H34ZM29.2733 -6.97367C26.2801 -9.92085 22.2659 -11.5385 18.125 -11.5385V16.4615C14.9787 16.4615 11.9183 15.2329 9.62837 12.9782L29.2733 -6.97367ZM18.125 -11.5385H13.75V16.4615H18.125V-11.5385ZM27.75 2.46154V1.84615H-0.25V2.46154H27.75ZM27.75 1.84615C27.75 -2.42716 26.0239 -6.48078 23.0233 -9.43521L3.37837 10.5167C1.08104 8.25468 -0.25 5.14021 -0.25 1.84615L27.75 1.84615ZM23.0233 -9.43521C20.0301 -12.3824 16.0159 -14 11.875 -14V14C8.72869 14 5.66834 12.7714 3.37837 10.5167L23.0233 -9.43521ZM11.875 -14H8.125V14H11.875V-14ZM8.125 15.2308H11.875V-12.7692H8.125V15.2308ZM11.875 15.2308C8.39717 15.2308 5.01888 13.8725 2.49448 11.3869L22.1394 -8.56492C19.3806 -11.2813 15.6844 -12.7692 11.875 -12.7692V15.2308ZM2.49448 11.3869C-0.0372811 8.89413 -1.5 5.46661 -1.5 1.84615H26.5C26.5 -2.10072 24.9056 -5.8413 22.1394 -8.56492L2.49448 11.3869ZM-1.5 1.84615V2.46154H26.5V1.84615H-1.5ZM12.5 -11.5385H7.5V16.4615H12.5V-11.5385ZM21.5 2.46154V1.84615H-6.5V2.46154H21.5ZM21.5 1.84615C21.5 5.46664 20.0373 8.89416 17.5055 11.3869L-2.1394 -8.56492C-4.90556 -5.84132 -6.5 -2.10076 -6.5 1.84615H21.5ZM17.5055 11.3869C14.9811 13.8725 11.6028 15.2308 8.125 15.2308V-12.7692C4.31564 -12.7692 0.619403 -11.2813 -2.1394 -8.56492L17.5055 11.3869ZM14.0365 23.2817L22.304 21.1118L15.196 -5.97092L6.9285 -3.80108L14.0365 23.2817ZM4.75 7.57046V14.1538H32.75V7.57046H4.75ZM4.75 14.1538C4.75 10.5334 6.21271 7.10588 8.74448 4.61305L28.3894 24.5649C31.1556 21.8413 32.75 18.1007 32.75 14.1538H4.75ZM8.74448 4.61305C11.2689 2.12747 14.6472 0.769231 18.125 0.769231V28.7692C21.9343 28.7692 25.6306 27.2813 28.3894 24.5649L8.74448 4.61305ZM18.125 0.769231H1.875V28.7692H18.125V0.769231ZM1.875 0.769231C5.35281 0.769231 8.73111 2.12748 11.2555 4.61305L-8.3894 24.5649C-5.63057 27.2813 -1.93433 28.7692 1.875 28.7692V0.769231ZM11.2555 4.61305C13.7873 7.10586 15.25 10.5334 15.25 14.1538H-12.75C-12.75 18.1007 -11.1556 21.8413 -8.3894 24.5649L11.2555 4.61305ZM15.25 14.1538V7.56923H-12.75V14.1538H15.25ZM-2.30589 21.1101L5.96161 23.2812L13.0734 -3.80058L4.80589 -5.97166L-2.30589 21.1101ZM5.96667 23.2825C8.6107 23.9758 11.3893 23.9758 14.0333 23.2825L6.93167 -3.80191C8.94339 -4.32939 11.0566 -4.32939 13.0683 -3.80191L5.96667 23.2825ZM1.875 17.6923H18.125V-10.3077H1.875V17.6923ZM18.125 17.6923C14.6472 17.6923 11.2689 16.334 8.74448 13.8485L28.3894 -6.10339C25.6306 -8.81976 21.9343 -10.3077 18.125 -10.3077V17.6923ZM8.74448 13.8485C6.21272 11.3557 4.75 7.92815 4.75 4.30769H32.75C32.75 0.360818 31.1556 -3.37976 28.3894 -6.10339L8.74448 13.8485ZM4.75 4.30769V6.29662H32.75V4.30769H4.75ZM15.1951 -7.24453L6.60635 -4.98976L13.7162 22.0925L22.3049 19.8378L15.1951 -7.24453ZM6.6012 -4.98841C8.82926 -5.57424 11.1707 -5.57424 13.3988 -4.98841L6.2787 22.0912C8.71805 22.7326 11.2819 22.7326 13.7213 22.0912L6.6012 -4.98841ZM13.3937 -4.98976L4.8049 -7.24453L-2.3049 19.8378L6.28385 22.0925L13.3937 -4.98976ZM15.25 6.29662V4.30769H-12.75V6.29662H15.25ZM15.25 4.30769C15.25 7.92817 13.7873 11.3557 11.2555 13.8485L-8.3894 -6.10339C-11.1556 -3.37978 -12.75 0.360792 -12.75 4.30769H15.25ZM11.2555 13.8485C8.73113 16.334 5.35284 17.6923 1.875 17.6923V-10.3077C-1.93436 -10.3077 -5.6306 -8.81975 -8.3894 -6.10339L11.2555 13.8485Z" fill="white" mask="url(#path-1-inside-1_290_741)"/>
</svg>
