<svg width="20" height="23" viewBox="0 0 20 23" fill="none" xmlns="http://www.w3.org/2000/svg">
<path d="M4.32982 1.41539C4.47501 1.00127 4.74397 0.642767 5.09966 0.389271C5.45535 0.135775 5.88024 -0.000229972 6.31579 2.91904e-07H10.5263C10.9619 -0.000229972 11.3868 0.135775 11.7424 0.389271C12.0981 0.642767 12.3671 1.00127 12.5123 1.41539H14.7368C15.2952 1.41539 15.8307 1.63907 16.2255 2.03722C16.6203 2.43537 16.8421 2.97539 16.8421 3.53846V18.3774C16.2396 18.6797 15.7481 19.1675 15.4386 19.7701V3.53846C15.4386 3.35077 15.3647 3.17077 15.2331 3.03805C15.1015 2.90533 14.923 2.83077 14.7368 2.83077H12.5123C12.3671 3.24488 12.0981 3.60339 11.7424 3.85688C11.3868 4.11038 10.9619 4.24638 10.5263 4.24615H6.31579C5.88024 4.24638 5.45535 4.11038 5.09966 3.85688C4.74397 3.60339 4.47501 3.24488 4.32982 2.83077H2.10526C1.91915 2.83077 1.74065 2.90533 1.60905 3.03805C1.47744 3.17077 1.40351 3.35077 1.40351 3.53846V20.5231C1.40351 20.7108 1.47744 20.8908 1.60905 21.0235C1.74065 21.1562 1.91915 21.2308 2.10526 21.2308H3.85965C3.85965 21.7403 3.97754 22.2201 4.18807 22.6462H2.10526C1.54691 22.6462 1.01143 22.4225 0.616617 22.0243C0.221804 21.6262 0 21.0862 0 20.5231V3.53846C0 2.97539 0.221804 2.43537 0.616617 2.03722C1.01143 1.63907 1.54691 1.41539 2.10526 1.41539H4.32982ZM6.31579 1.41539C6.12967 1.41539 5.95118 1.48995 5.81957 1.62266C5.68797 1.75538 5.61404 1.93539 5.61404 2.12308C5.61404 2.31077 5.68797 2.49077 5.81957 2.62349C5.95118 2.75621 6.12967 2.83077 6.31579 2.83077H10.5263C10.7124 2.83077 10.8909 2.75621 11.0225 2.62349C11.1541 2.49077 11.2281 2.31077 11.2281 2.12308C11.2281 1.93539 11.1541 1.75538 11.0225 1.62266C10.8909 1.48995 10.7124 1.41539 10.5263 1.41539H6.31579ZM8.77193 21.2308C8.77193 21.7 8.58709 22.15 8.25808 22.4818C7.92907 22.8136 7.48284 23 7.01754 23C6.55225 23 6.10602 22.8136 5.77701 22.4818C5.44799 22.15 5.26316 21.7 5.26316 21.2308C5.26316 20.7615 5.44799 20.3115 5.77701 19.9797C6.10602 19.6479 6.55225 19.4615 7.01754 19.4615C7.48284 19.4615 7.92907 19.6479 8.25808 19.9797C8.58709 20.3115 8.77193 20.7615 8.77193 21.2308ZM12.6316 23C13.0969 23 13.5431 22.8136 13.8721 22.4818C14.2011 22.15 14.386 21.7 14.386 21.2308C14.386 20.7615 14.2011 20.3115 13.8721 19.9797C13.5431 19.6479 13.0969 19.4615 12.6316 19.4615C12.1663 19.4615 11.7201 19.6479 11.391 19.9797C11.062 20.3115 10.8772 20.7615 10.8772 21.2308C10.8772 21.7 11.062 22.15 11.391 22.4818C11.7201 22.8136 12.1663 23 12.6316 23ZM18.2456 23C18.7109 23 19.1571 22.8136 19.4862 22.4818C19.8152 22.15 20 21.7 20 21.2308C20 20.7615 19.8152 20.3115 19.4862 19.9797C19.1571 19.6479 18.7109 19.4615 18.2456 19.4615C17.7803 19.4615 17.3341 19.6479 17.0051 19.9797C16.6761 20.3115 16.4912 20.7615 16.4912 21.2308C16.4912 21.7 16.6761 22.15 17.0051 22.4818C17.3341 22.8136 17.7803 23 18.2456 23Z" fill="white"/>
</svg>
