<svg width="8" height="8" viewBox="0 0 8 8" fill="none" xmlns="http://www.w3.org/2000/svg">
<path d="M4.625 0.601562C4.625 0.502734 4.54414 0.421875 4.44531 0.421875H3.36719C3.26836 0.421875 3.1875 0.502734 3.1875 0.601562V3.02734H0.761719C0.662891 3.02734 0.582031 3.1082 0.582031 3.20703V4.28516C0.582031 4.38398 0.662891 4.46484 0.761719 4.46484H3.1875V6.89062C3.1875 6.98945 3.26836 7.07031 3.36719 7.07031H4.44531C4.54414 7.07031 4.625 6.98945 4.625 6.89062V4.46484H7.05078C7.14961 4.46484 7.23047 4.38398 7.23047 4.28516V3.20703C7.23047 3.1082 7.14961 3.02734 7.05078 3.02734H4.625V0.601562Z" fill="white"/>
</svg>
