<svg width="18" height="23" viewBox="0 0 18 23" fill="none" xmlns="http://www.w3.org/2000/svg">
<path d="M9 11.5C9.61875 11.5 10.1486 11.2795 10.5896 10.8385C11.0299 10.3982 11.25 9.86875 11.25 9.25C11.25 8.63125 11.0299 8.10138 10.5896 7.66037C10.1486 7.22012 9.61875 7 9 7C8.38125 7 7.85175 7.22012 7.4115 7.66037C6.9705 8.10138 6.75 8.63125 6.75 9.25C6.75 9.86875 6.9705 10.3982 7.4115 10.8385C7.85175 11.2795 8.38125 11.5 9 11.5ZM9 22.75C5.98125 20.1812 3.72675 17.7951 2.2365 15.5916C0.7455 13.3889 0 11.35 0 9.475C0 6.6625 0.904875 4.42188 2.71463 2.75312C4.52363 1.08437 6.61875 0.25 9 0.25C11.3812 0.25 13.4764 1.08437 15.2854 2.75312C17.0951 4.42188 18 6.6625 18 9.475C18 11.35 17.2549 13.3889 15.7646 15.5916C14.2736 17.7951 12.0188 20.1812 9 22.75Z" fill="#7EA2FD"/>
</svg>
