<svg width="23" height="17" viewBox="0 0 23 17" fill="none" xmlns="http://www.w3.org/2000/svg">
<path d="M21.3571 0H1.64286C1.20714 0 0.789277 0.179107 0.481182 0.497918C0.173086 0.81673 0 1.24913 0 1.7V15.3C0 15.7509 0.173086 16.1833 0.481182 16.5021C0.789277 16.8209 1.20714 17 1.64286 17H21.3571C21.7929 17 22.2107 16.8209 22.5188 16.5021C22.8269 16.1833 23 15.7509 23 15.3V1.7C23 1.24913 22.8269 0.81673 22.5188 0.497918C22.2107 0.179107 21.7929 0 21.3571 0ZM19.55 1.7L11.5 7.463L3.45 1.7H19.55ZM1.64286 15.3V2.4735L11.0318 9.197C11.1693 9.29571 11.3326 9.3486 11.5 9.3486C11.6674 9.3486 11.8307 9.29571 11.9682 9.197L21.3571 2.4735V15.3H1.64286Z" fill="white"/>
</svg>
