<svg width="20" height="20" viewBox="0 0 20 20" fill="none" xmlns="http://www.w3.org/2000/svg">
<path fill-rule="evenodd" clip-rule="evenodd" d="M0.25 0.25H17.0417V2.95833H15.9583V1.33333H1.33333V13.7917H12.918V14.875H0.25V0.25ZM16.5 7.29167C16.931 7.29167 17.3443 7.12046 17.649 6.81572C17.9538 6.51097 18.125 6.09764 18.125 5.66667C18.125 5.23569 17.9538 4.82236 17.649 4.51762C17.3443 4.21287 16.931 4.04167 16.5 4.04167C16.069 4.04167 15.6557 4.21287 15.351 4.51762C15.0462 4.82236 14.875 5.23569 14.875 5.66667C14.875 6.09764 15.0462 6.51097 15.351 6.81572C15.6557 7.12046 16.069 7.29167 16.5 7.29167ZM17.6001 8.38042C18.3037 8.38042 18.8606 8.69675 19.2251 9.18533C19.5658 9.64304 19.7099 10.2091 19.7424 10.7318C19.7743 11.268 19.7012 11.8052 19.5274 12.3135C19.3649 12.7847 19.0903 13.2722 18.6667 13.6064V18.9375C18.6671 19.1416 18.5906 19.3384 18.4525 19.4888C18.3144 19.6391 18.1247 19.7319 17.9213 19.7488C17.7178 19.7656 17.5155 19.7053 17.3545 19.5798C17.1935 19.4542 17.0857 19.2727 17.0525 19.0713L16.3538 14.875H16.1923L15.4026 19.087C15.3651 19.2858 15.2548 19.4634 15.0932 19.5852C14.9317 19.707 14.7305 19.7641 14.5291 19.7454C14.3277 19.7267 14.1404 19.6335 14.0041 19.4841C13.8677 19.3347 13.7919 19.1398 13.7917 18.9375V11.2095C13.6833 11.3745 13.5765 11.5405 13.471 11.7073L13.4288 11.774L13.4179 11.7913L13.4152 11.7962C13.3422 11.9134 13.2405 12.0101 13.1198 12.0771C12.999 12.1441 12.8632 12.1792 12.7251 12.1791H10.0168C9.8013 12.1791 9.59464 12.0935 9.44227 11.9411C9.2899 11.7888 9.20429 11.5821 9.20429 11.3666C9.20429 11.1511 9.2899 10.9445 9.44227 10.7921C9.59464 10.6397 9.8013 10.5541 10.0168 10.5541H12.2793C12.411 10.3505 12.5843 10.0861 12.7663 9.82071C12.9559 9.54392 13.165 9.25088 13.3513 9.02121C13.4418 8.90908 13.543 8.79208 13.6449 8.69621C13.6947 8.64908 13.764 8.58788 13.8485 8.53371C13.9977 8.43582 14.1718 8.38281 14.3501 8.38096H17.6001V8.38042Z" fill="white"/>
</svg>
