<svg width="60" height="54" viewBox="0 0 60 54" fill="none" xmlns="http://www.w3.org/2000/svg">
<path d="M33 54L39 51L45 54V33H33M45 18V12L39 15L33 12V18L27 21L33 24V30L39 27L45 30V24L51 21M54 0H6C4.4087 0 2.88258 0.632141 1.75736 1.75736C0.632141 2.88258 0 4.4087 0 6V36C0 37.5913 0.632141 39.1174 1.75736 40.2426C2.88258 41.3679 4.4087 42 6 42H27V36H6V6H54V36H51V42H54C55.5913 42 57.1174 41.3679 58.2426 40.2426C59.3679 39.1174 60 37.5913 60 36V6C60 4.4087 59.3679 2.88258 58.2426 1.75736C57.1174 0.632141 55.5913 0 54 0ZM27 15H9V9H27M21 24H9V18H21M27 33H9V27H27V33Z" fill="white"/>
</svg>
