<svg width="45" height="51" viewBox="0 0 45 51" fill="none" xmlns="http://www.w3.org/2000/svg">
<path fill-rule="evenodd" clip-rule="evenodd" d="M33.8438 51C36.8026 51 39.6402 49.8246 41.7324 47.7324C43.8246 45.6402 45 42.8026 45 39.8438C45 36.8849 43.8246 34.0473 41.7324 31.9551C39.6402 29.8629 36.8026 28.6875 33.8438 28.6875C30.8849 28.6875 28.0473 29.8629 25.9551 31.9551C23.8629 34.0473 22.6875 36.8849 22.6875 39.8438C22.6875 42.8026 23.8629 45.6402 25.9551 47.7324C28.0473 49.8246 30.8849 51 33.8438 51ZM34.9721 32.3404C34.8241 32.192 34.6482 32.0742 34.4546 31.9939C34.261 31.9135 34.0534 31.8722 33.8438 31.8722C33.6341 31.8722 33.4265 31.9135 33.2329 31.9939C33.0393 32.0742 32.8634 32.192 32.7154 32.3404L27.9341 37.1216C27.6349 37.4209 27.4667 37.8268 27.4667 38.25C27.4667 38.6732 27.6349 39.0791 27.9341 39.3784C28.2334 39.6776 28.6393 39.8458 29.0625 39.8458C29.4857 39.8458 29.8916 39.6776 30.1909 39.3784L32.25 37.3161V46.2188C32.25 46.6414 32.4179 47.0468 32.7168 47.3457C33.0157 47.6446 33.4211 47.8125 33.8438 47.8125C34.2664 47.8125 34.6718 47.6446 34.9707 47.3457C35.2696 47.0468 35.4375 46.6414 35.4375 46.2188V37.3161L37.4966 39.3784C37.7959 39.6776 38.2018 39.8458 38.625 39.8458C39.0482 39.8458 39.4541 39.6776 39.7534 39.3784C40.0526 39.0791 40.2208 38.6732 40.2208 38.25C40.2208 37.8268 40.0526 37.4209 39.7534 37.1216L34.9721 32.3404Z" fill="white"/>
<path d="M0.375 3.1875C0.375 2.34212 0.710825 1.53137 1.3086 0.933597C1.90637 0.335825 2.71712 0 3.5625 0L35.4375 0C36.2829 0 37.0936 0.335825 37.6914 0.933597C38.2892 1.53137 38.625 2.34212 38.625 3.1875V23.9062C38.625 24.3289 38.4571 24.7343 38.1582 25.0332C37.8593 25.3321 37.4539 25.5 37.0312 25.5C36.6086 25.5 36.2032 25.3321 35.9043 25.0332C35.6054 24.7343 35.4375 24.3289 35.4375 23.9062V3.1875H3.5625V47.8125H13.125V39.8438C13.125 39.4211 13.2929 39.0157 13.5918 38.7168C13.8907 38.4179 14.2961 38.25 14.7188 38.25H19.5V51H3.5625C2.71712 51 1.90637 50.6642 1.3086 50.0664C0.710825 49.4686 0.375 48.6579 0.375 47.8125V3.1875Z" fill="white"/>
<path d="M8.34375 6.375C7.92106 6.375 7.51568 6.54291 7.2168 6.8418C6.91791 7.14068 6.75 7.54606 6.75 7.96875V11.1562C6.75 11.5789 6.91791 11.9843 7.2168 12.2832C7.51568 12.5821 7.92106 12.75 8.34375 12.75H11.5312C11.9539 12.75 12.3593 12.5821 12.6582 12.2832C12.9571 11.9843 13.125 11.5789 13.125 11.1562V7.96875C13.125 7.54606 12.9571 7.14068 12.6582 6.8418C12.3593 6.54291 11.9539 6.375 11.5312 6.375H8.34375ZM17.9062 6.375C17.4836 6.375 17.0782 6.54291 16.7793 6.8418C16.4804 7.14068 16.3125 7.54606 16.3125 7.96875V11.1562C16.3125 11.5789 16.4804 11.9843 16.7793 12.2832C17.0782 12.5821 17.4836 12.75 17.9062 12.75H21.0938C21.5164 12.75 21.9218 12.5821 22.2207 12.2832C22.5196 11.9843 22.6875 11.5789 22.6875 11.1562V7.96875C22.6875 7.54606 22.5196 7.14068 22.2207 6.8418C21.9218 6.54291 21.5164 6.375 21.0938 6.375H17.9062ZM27.4688 6.375C27.0461 6.375 26.6407 6.54291 26.3418 6.8418C26.0429 7.14068 25.875 7.54606 25.875 7.96875V11.1562C25.875 11.5789 26.0429 11.9843 26.3418 12.2832C26.6407 12.5821 27.0461 12.75 27.4688 12.75H30.6562C31.0789 12.75 31.4843 12.5821 31.7832 12.2832C32.0821 11.9843 32.25 11.5789 32.25 11.1562V7.96875C32.25 7.54606 32.0821 7.14068 31.7832 6.8418C31.4843 6.54291 31.0789 6.375 30.6562 6.375H27.4688ZM8.34375 15.9375C7.92106 15.9375 7.51568 16.1054 7.2168 16.4043C6.91791 16.7032 6.75 17.1086 6.75 17.5312V20.7188C6.75 21.1414 6.91791 21.5468 7.2168 21.8457C7.51568 22.1446 7.92106 22.3125 8.34375 22.3125H11.5312C11.9539 22.3125 12.3593 22.1446 12.6582 21.8457C12.9571 21.5468 13.125 21.1414 13.125 20.7188V17.5312C13.125 17.1086 12.9571 16.7032 12.6582 16.4043C12.3593 16.1054 11.9539 15.9375 11.5312 15.9375H8.34375ZM17.9062 15.9375C17.4836 15.9375 17.0782 16.1054 16.7793 16.4043C16.4804 16.7032 16.3125 17.1086 16.3125 17.5312V20.7188C16.3125 21.1414 16.4804 21.5468 16.7793 21.8457C17.0782 22.1446 17.4836 22.3125 17.9062 22.3125H21.0938C21.5164 22.3125 21.9218 22.1446 22.2207 21.8457C22.5196 21.5468 22.6875 21.1414 22.6875 20.7188V17.5312C22.6875 17.1086 22.5196 16.7032 22.2207 16.4043C21.9218 16.1054 21.5164 15.9375 21.0938 15.9375H17.9062ZM27.4688 15.9375C27.0461 15.9375 26.6407 16.1054 26.3418 16.4043C26.0429 16.7032 25.875 17.1086 25.875 17.5312V20.7188C25.875 21.1414 26.0429 21.5468 26.3418 21.8457C26.6407 22.1446 27.0461 22.3125 27.4688 22.3125H30.6562C31.0789 22.3125 31.4843 22.1446 31.7832 21.8457C32.0821 21.5468 32.25 21.1414 32.25 20.7188V17.5312C32.25 17.1086 32.0821 16.7032 31.7832 16.4043C31.4843 16.1054 31.0789 15.9375 30.6562 15.9375H27.4688ZM8.34375 25.5C7.92106 25.5 7.51568 25.6679 7.2168 25.9668C6.91791 26.2657 6.75 26.6711 6.75 27.0938V30.2812C6.75 30.7039 6.91791 31.1093 7.2168 31.4082C7.51568 31.7071 7.92106 31.875 8.34375 31.875H11.5312C11.9539 31.875 12.3593 31.7071 12.6582 31.4082C12.9571 31.1093 13.125 30.7039 13.125 30.2812V27.0938C13.125 26.6711 12.9571 26.2657 12.6582 25.9668C12.3593 25.6679 11.9539 25.5 11.5312 25.5H8.34375ZM17.9062 25.5C17.4836 25.5 17.0782 25.6679 16.7793 25.9668C16.4804 26.2657 16.3125 26.6711 16.3125 27.0938V30.2812C16.3125 30.7039 16.4804 31.1093 16.7793 31.4082C17.0782 31.7071 17.4836 31.875 17.9062 31.875H21.0938C21.5164 31.875 21.9218 31.7071 22.2207 31.4082C22.5196 31.1093 22.6875 30.7039 22.6875 30.2812V27.0938C22.6875 26.6711 22.5196 26.2657 22.2207 25.9668C21.9218 25.6679 21.5164 25.5 21.0938 25.5H17.9062Z" fill="white"/>
</svg>
