<svg width="170" height="47" viewBox="0 0 170 47" fill="none" xmlns="http://www.w3.org/2000/svg">
<rect width="170" height="47" rx="4" fill="#7BA0FF"/>
<path d="M37.2161 16.415L37.0841 15.749C36.9651 15.151 36.6961 14.586 36.0831 14.37C35.8861 14.301 35.6631 14.272 35.5131 14.129C35.3611 13.986 35.3171 13.763 35.2821 13.557C35.2171 13.179 35.1571 12.801 35.0901 12.424C35.0331 12.099 34.9881 11.734 34.8401 11.437C34.6451 11.037 34.2431 10.803 33.8441 10.649C33.6393 10.5724 33.4303 10.5076 33.2181 10.455C32.2181 10.192 31.1681 10.095 30.1411 10.039C28.9078 9.97119 27.6713 9.99191 26.4411 10.101C25.5261 10.184 24.5611 10.285 23.6911 10.601C23.3731 10.717 23.0451 10.857 22.8031 11.102C22.5061 11.404 22.4101 11.872 22.6261 12.248C22.7801 12.515 23.0411 12.704 23.3181 12.828C23.6781 12.99 24.0551 13.112 24.4411 13.194C25.5161 13.432 26.6301 13.525 27.7281 13.564C28.9461 13.614 30.1651 13.574 31.3781 13.446C31.6771 13.413 31.9761 13.373 32.2741 13.327C32.6261 13.273 32.8521 12.814 32.7481 12.493C32.6241 12.11 32.2911 11.962 31.9141 12.02C31.4481 12.094 30.9541 12.128 30.5321 12.166C29.3551 12.246 28.1741 12.248 26.9961 12.172C26.6095 12.1464 26.2237 12.1107 25.8391 12.065C25.7531 12.055 25.6591 12.04 25.5811 12.029C25.3381 11.993 25.0971 11.949 24.8571 11.899C24.7461 11.872 24.7461 11.714 24.8571 11.687H24.8621C25.1391 11.627 25.4191 11.579 25.7001 11.54H25.7021C25.8331 11.531 25.9651 11.508 26.0961 11.492C27.234 11.3739 28.3787 11.3338 29.5221 11.372C30.1961 11.391 30.8691 11.439 31.5391 11.516L31.7671 11.547C32.0341 11.587 32.3001 11.635 32.5651 11.692C32.9571 11.777 33.4601 11.805 33.6351 12.234C33.6901 12.371 33.7151 12.522 33.7461 12.665L34.0651 14.149C34.0718 14.1808 34.072 14.2137 34.0655 14.2456C34.059 14.2774 34.046 14.3076 34.0273 14.3343C34.0087 14.3609 33.9847 14.3834 33.957 14.4004C33.9292 14.4174 33.8983 14.4285 33.8661 14.433H33.8631C33.8261 14.439 33.7881 14.443 33.7511 14.448C32.1781 14.6487 30.5938 14.7472 29.0081 14.743C27.4369 14.7414 25.8674 14.6398 24.3091 14.439C24.1691 14.422 24.0161 14.397 23.8921 14.379C23.5661 14.331 23.2431 14.271 22.9191 14.218C22.5261 14.153 22.1511 14.186 21.7961 14.379C21.5061 14.539 21.2691 14.783 21.1211 15.08C20.9671 15.396 20.9221 15.74 20.8541 16.08C20.7851 16.42 20.6781 16.787 20.7191 17.136C20.8061 17.889 21.3321 18.501 22.0891 18.638C25.8325 19.3061 29.6526 19.4327 33.4321 19.014C33.5039 19.0058 33.5766 19.0139 33.6449 19.0375C33.7131 19.0612 33.7752 19.0999 33.8266 19.1508C33.8779 19.2016 33.9172 19.2634 33.9415 19.3314C33.9658 19.3995 33.9745 19.4721 33.9671 19.544L33.8961 20.241L32.8781 30.148C32.8371 30.558 32.8311 30.98 32.7531 31.385C32.6311 32.022 32.2001 32.413 31.5711 32.556C30.9941 32.687 30.4061 32.756 29.8151 32.761C29.1591 32.765 28.5051 32.736 27.8491 32.739C27.1501 32.743 26.2931 32.679 25.7541 32.159C25.2791 31.701 25.2141 30.985 25.1491 30.366L24.4181 23.353L24.0961 20.259C24.0591 19.908 23.8101 19.564 23.4181 19.581C23.0821 19.596 22.7001 19.881 22.7401 20.26L22.9681 22.445L23.9171 31.557C24.0641 32.901 25.0911 33.625 26.3631 33.829C27.1051 33.949 27.8661 33.973 28.6201 33.985C29.5861 34.001 30.5621 34.038 31.5121 33.863C32.9201 33.605 33.9771 32.665 34.1281 31.206C34.4681 27.874 34.8111 24.543 35.1521 21.211L35.3671 19.124C35.3776 19.0205 35.4213 18.9232 35.4915 18.8464C35.5618 18.7697 35.6549 18.7177 35.7571 18.698C36.1591 18.62 36.5441 18.486 36.8311 18.18C37.2861 17.692 37.3771 17.057 37.2161 16.415ZM35.7381 17.187C35.5931 17.324 35.3751 17.388 35.1601 17.42C32.7441 17.779 30.2941 17.96 27.8521 17.88C26.1041 17.82 24.3751 17.626 22.6451 17.382C22.4751 17.358 22.2921 17.327 22.1751 17.202C21.9551 16.966 22.0641 16.492 22.1211 16.207C22.1731 15.947 22.2731 15.598 22.5841 15.561C23.0681 15.504 23.6301 15.709 24.1101 15.781C24.6871 15.869 25.2661 15.94 25.8471 15.993C28.3271 16.219 30.8491 16.183 33.3191 15.853C33.7691 15.793 34.2181 15.723 34.6641 15.643C35.0631 15.571 35.5041 15.437 35.7441 15.849C35.9101 16.13 35.9321 16.506 35.9061 16.823C35.8982 16.9614 35.8377 17.0916 35.7371 17.187H35.7381Z" fill="#FFFFFE"/>
<path d="M26.4704 21.875C27.7394 21.875 28.7174 21.457 29.5794 21.087C30.3484 20.758 31.0134 20.474 31.8394 20.474C32.2903 20.4782 32.7373 20.5586 33.1614 20.712L32.2214 30.662C32.1564 31.442 31.5054 32.042 30.7224 32.042C30.7224 32.042 29.3834 32.107 28.9364 32.107C28.5214 32.107 27.2784 32.042 27.2784 32.042C26.4954 32.042 25.8434 31.442 25.7784 30.662L24.9014 21.658C25.4122 21.8007 25.94 21.8737 26.4704 21.875Z" fill="#4053FF"/>
<path d="M51.594 23.664C51.594 22.416 51.864 21.306 52.404 20.334C52.944 19.35 53.694 18.588 54.654 18.048C55.626 17.496 56.724 17.22 57.948 17.22C59.448 17.22 60.732 17.616 61.8 18.408C62.868 19.2 63.582 20.28 63.942 21.648H60.558C60.306 21.12 59.946 20.718 59.478 20.442C59.022 20.166 58.5 20.028 57.912 20.028C56.964 20.028 56.196 20.358 55.608 21.018C55.02 21.678 54.726 22.56 54.726 23.664C54.726 24.768 55.02 25.65 55.608 26.31C56.196 26.97 56.964 27.3 57.912 27.3C58.5 27.3 59.022 27.162 59.478 26.886C59.946 26.61 60.306 26.208 60.558 25.68H63.942C63.582 27.048 62.868 28.128 61.8 28.92C60.732 29.7 59.448 30.09 57.948 30.09C56.724 30.09 55.626 29.82 54.654 29.28C53.694 28.728 52.944 27.966 52.404 26.994C51.864 26.022 51.594 24.912 51.594 23.664ZM70.3989 30.144C69.4149 30.144 68.5269 29.934 67.7349 29.514C66.9549 29.094 66.3369 28.494 65.8809 27.714C65.4369 26.934 65.2149 26.022 65.2149 24.978C65.2149 23.946 65.4429 23.04 65.8989 22.26C66.3549 21.468 66.9789 20.862 67.7709 20.442C68.5629 20.022 69.4509 19.812 70.4349 19.812C71.4189 19.812 72.3069 20.022 73.0989 20.442C73.8909 20.862 74.5149 21.468 74.9709 22.26C75.4269 23.04 75.6549 23.946 75.6549 24.978C75.6549 26.01 75.4209 26.922 74.9529 27.714C74.4969 28.494 73.8669 29.094 73.0629 29.514C72.2709 29.934 71.3829 30.144 70.3989 30.144ZM70.3989 27.48C70.9869 27.48 71.4849 27.264 71.8929 26.832C72.3129 26.4 72.5229 25.782 72.5229 24.978C72.5229 24.174 72.3189 23.556 71.9109 23.124C71.5149 22.692 71.0229 22.476 70.4349 22.476C69.8349 22.476 69.3369 22.692 68.9409 23.124C68.5449 23.544 68.3469 24.162 68.3469 24.978C68.3469 25.782 68.5389 26.4 68.9229 26.832C69.3189 27.264 69.8109 27.48 70.3989 27.48ZM83.4079 19.848C84.5839 19.848 85.5199 20.232 86.2159 21C86.9239 21.756 87.2779 22.8 87.2779 24.132V30H84.2179V24.546C84.2179 23.874 84.0439 23.352 83.6959 22.98C83.3479 22.608 82.8799 22.422 82.2919 22.422C81.7039 22.422 81.2359 22.608 80.8879 22.98C80.5399 23.352 80.3659 23.874 80.3659 24.546V30H77.2879V19.956H80.3659V21.288C80.6779 20.844 81.0979 20.496 81.6259 20.244C82.1539 19.98 82.7479 19.848 83.4079 19.848ZM95.0148 27.39V30H93.4488C92.3328 30 91.4628 29.73 90.8388 29.19C90.2148 28.638 89.9028 27.744 89.9028 26.508V22.512H88.6788V19.956H89.9028V17.508H92.9808V19.956H94.9968V22.512H92.9808V26.544C92.9808 26.844 93.0528 27.06 93.1968 27.192C93.3408 27.324 93.5808 27.39 93.9168 27.39H95.0148ZM96.1173 24.96C96.1173 23.928 96.3093 23.022 96.6933 22.242C97.0893 21.462 97.6233 20.862 98.2953 20.442C98.9673 20.022 99.7173 19.812 100.545 19.812C101.253 19.812 101.871 19.956 102.399 20.244C102.939 20.532 103.353 20.91 103.641 21.378V19.956H106.719V30H103.641V28.578C103.341 29.046 102.921 29.424 102.381 29.712C101.853 30 101.235 30.144 100.527 30.144C99.7113 30.144 98.9673 29.934 98.2953 29.514C97.6233 29.082 97.0893 28.476 96.6933 27.696C96.3093 26.904 96.1173 25.992 96.1173 24.96ZM103.641 24.978C103.641 24.21 103.425 23.604 102.993 23.16C102.573 22.716 102.057 22.494 101.445 22.494C100.833 22.494 100.311 22.716 99.8793 23.16C99.4593 23.592 99.2493 24.192 99.2493 24.96C99.2493 25.728 99.4593 26.34 99.8793 26.796C100.311 27.24 100.833 27.462 101.445 27.462C102.057 27.462 102.573 27.24 102.993 26.796C103.425 26.352 103.641 25.746 103.641 24.978ZM108.334 24.978C108.334 23.934 108.544 23.022 108.964 22.242C109.396 21.462 109.99 20.862 110.746 20.442C111.514 20.022 112.39 19.812 113.374 19.812C114.634 19.812 115.684 20.142 116.524 20.802C117.376 21.462 117.934 22.392 118.198 23.592H114.922C114.646 22.824 114.112 22.44 113.32 22.44C112.756 22.44 112.306 22.662 111.97 23.106C111.634 23.538 111.466 24.162 111.466 24.978C111.466 25.794 111.634 26.424 111.97 26.868C112.306 27.3 112.756 27.516 113.32 27.516C114.112 27.516 114.646 27.132 114.922 26.364H118.198C117.934 27.54 117.376 28.464 116.524 29.136C115.672 29.808 114.622 30.144 113.374 30.144C112.39 30.144 111.514 29.934 110.746 29.514C109.99 29.094 109.396 28.494 108.964 27.714C108.544 26.934 108.334 26.022 108.334 24.978ZM125.443 27.39V30H123.877C122.761 30 121.891 29.73 121.267 29.19C120.643 28.638 120.331 27.744 120.331 26.508V22.512H119.107V19.956H120.331V17.508H123.409V19.956H125.425V22.512H123.409V26.544C123.409 26.844 123.481 27.06 123.625 27.192C123.769 27.324 124.009 27.39 124.345 27.39H125.443ZM133.995 17.364V24.924C133.995 25.68 134.181 26.262 134.553 26.67C134.925 27.078 135.471 27.282 136.191 27.282C136.911 27.282 137.463 27.078 137.847 26.67C138.231 26.262 138.423 25.68 138.423 24.924V17.364H141.501V24.906C141.501 26.034 141.261 26.988 140.781 27.768C140.301 28.548 139.653 29.136 138.837 29.532C138.033 29.928 137.133 30.126 136.137 30.126C135.141 30.126 134.247 29.934 133.455 29.55C132.675 29.154 132.057 28.566 131.601 27.786C131.145 26.994 130.917 26.034 130.917 24.906V17.364H133.995ZM147.749 30.144C146.873 30.144 146.093 29.994 145.409 29.694C144.725 29.394 144.185 28.986 143.789 28.47C143.393 27.942 143.171 27.354 143.123 26.706H146.165C146.201 27.054 146.363 27.336 146.651 27.552C146.939 27.768 147.293 27.876 147.713 27.876C148.097 27.876 148.391 27.804 148.595 27.66C148.811 27.504 148.919 27.306 148.919 27.066C148.919 26.778 148.769 26.568 148.469 26.436C148.169 26.292 147.683 26.136 147.011 25.968C146.291 25.8 145.691 25.626 145.211 25.446C144.731 25.254 144.317 24.96 143.969 24.564C143.621 24.156 143.447 23.61 143.447 22.926C143.447 22.35 143.603 21.828 143.915 21.36C144.239 20.88 144.707 20.502 145.319 20.226C145.943 19.95 146.681 19.812 147.533 19.812C148.793 19.812 149.783 20.124 150.503 20.748C151.235 21.372 151.655 22.2 151.763 23.232H148.919C148.871 22.884 148.715 22.608 148.451 22.404C148.199 22.2 147.863 22.098 147.443 22.098C147.083 22.098 146.807 22.17 146.615 22.314C146.423 22.446 146.327 22.632 146.327 22.872C146.327 23.16 146.477 23.376 146.777 23.52C147.089 23.664 147.569 23.808 148.217 23.952C148.961 24.144 149.567 24.336 150.035 24.528C150.503 24.708 150.911 25.008 151.259 25.428C151.619 25.836 151.805 26.388 151.817 27.084C151.817 27.672 151.649 28.2 151.313 28.668C150.989 29.124 150.515 29.484 149.891 29.748C149.279 30.012 148.565 30.144 147.749 30.144Z" fill="#FFFFFE"/>
</svg>
