<svg width="72" height="62" viewBox="0 0 72 62" fill="none" xmlns="http://www.w3.org/2000/svg">
<path d="M36 0L0 16.6923L9.6 20.9846V29.0923C6.72 30.0462 4.8 32.9077 4.8 35.7692C4.8 38.6308 6.72 41.4923 9.6 42.4462V42.9231L5.28 52.9385C3.84 57.2308 4.8 62 12 62C19.2 62 20.16 57.2308 18.72 52.9385L14.4 42.9231C17.28 41.4923 19.2 39.1077 19.2 35.7692C19.2 32.4308 17.28 30.0462 14.4 29.0923V23.3692L36 33.3846L72 16.6923L36 0ZM57.12 31L35.52 40.5385L24 35.2923V35.7692C24 39.1077 22.56 41.9692 20.16 44.3538L23.04 51.0308V51.5077C23.52 53.4154 24 55.3231 23.52 57.2308C26.88 58.6615 30.72 59.6154 35.52 59.6154C51.36 59.6154 57.12 50.0769 57.12 45.3077V31Z" fill="white"/>
</svg>
