<svg width="122" height="122" viewBox="0 0 122 122" fill="none" xmlns="http://www.w3.org/2000/svg">
<g filter="url(#filter0_d_0_1)">
<rect x="7" y="7" width="100" height="100" rx="12" fill="#7BA0FF"/>
</g>
<path fill-rule="evenodd" clip-rule="evenodd" d="M72.75 83C75.9989 83 79.1147 81.7094 81.4121 79.4121C83.7094 77.1147 85 73.9989 85 70.75C85 67.5011 83.7094 64.3853 81.4121 62.0879C79.1147 59.7906 75.9989 58.5 72.75 58.5C69.5011 58.5 66.3853 59.7906 64.0879 62.0879C61.7906 64.3853 60.5 67.5011 60.5 70.75C60.5 73.9989 61.7906 77.1147 64.0879 79.4121C66.3853 81.7094 69.5011 83 72.75 83ZM73.989 62.511C73.8264 62.348 73.6333 62.2187 73.4207 62.1305C73.2081 62.0423 72.9802 61.9969 72.75 61.9969C72.5198 61.9969 72.2919 62.0423 72.0793 62.1305C71.8667 62.2187 71.6736 62.348 71.511 62.511L66.261 67.761C65.9324 68.0896 65.7478 68.5353 65.7478 69C65.7478 69.4647 65.9324 69.9104 66.261 70.239C66.5896 70.5676 67.0353 70.7522 67.5 70.7522C67.9647 70.7522 68.4104 70.5676 68.739 70.239L71 67.9745V77.75C71 78.2141 71.1844 78.6593 71.5126 78.9874C71.8408 79.3156 72.2859 79.5 72.75 79.5C73.2141 79.5 73.6592 79.3156 73.9874 78.9874C74.3156 78.6593 74.5 78.2141 74.5 77.75V67.9745L76.761 70.239C77.0896 70.5676 77.5353 70.7522 78 70.7522C78.4647 70.7522 78.9104 70.5676 79.239 70.239C79.5676 69.9104 79.7522 69.4647 79.7522 69C79.7522 68.5353 79.5676 68.0896 79.239 67.761L73.989 62.511Z" fill="white"/>
<path d="M36 30.5C36 29.5717 36.3687 28.6815 37.0251 28.0251C37.6815 27.3687 38.5717 27 39.5 27H74.5C75.4283 27 76.3185 27.3687 76.9749 28.0251C77.6312 28.6815 78 29.5717 78 30.5V53.25C78 53.7141 77.8156 54.1592 77.4874 54.4874C77.1592 54.8156 76.7141 55 76.25 55C75.7859 55 75.3408 54.8156 75.0126 54.4874C74.6844 54.1592 74.5 53.7141 74.5 53.25V30.5H39.5V79.5H50V70.75C50 70.2859 50.1844 69.8408 50.5126 69.5126C50.8408 69.1844 51.2859 69 51.75 69H57V83H39.5C38.5717 83 37.6815 82.6312 37.0251 81.9749C36.3687 81.3185 36 80.4283 36 79.5V30.5Z" fill="white"/>
<path d="M44.75 34C44.2859 34 43.8408 34.1844 43.5126 34.5126C43.1844 34.8408 43 35.2859 43 35.75V39.25C43 39.7141 43.1844 40.1592 43.5126 40.4874C43.8408 40.8156 44.2859 41 44.75 41H48.25C48.7141 41 49.1592 40.8156 49.4874 40.4874C49.8156 40.1592 50 39.7141 50 39.25V35.75C50 35.2859 49.8156 34.8408 49.4874 34.5126C49.1592 34.1844 48.7141 34 48.25 34H44.75ZM55.25 34C54.7859 34 54.3408 34.1844 54.0126 34.5126C53.6844 34.8408 53.5 35.2859 53.5 35.75V39.25C53.5 39.7141 53.6844 40.1592 54.0126 40.4874C54.3408 40.8156 54.7859 41 55.25 41H58.75C59.2141 41 59.6593 40.8156 59.9874 40.4874C60.3156 40.1592 60.5 39.7141 60.5 39.25V35.75C60.5 35.2859 60.3156 34.8408 59.9874 34.5126C59.6593 34.1844 59.2141 34 58.75 34H55.25ZM65.75 34C65.2859 34 64.8407 34.1844 64.5126 34.5126C64.1844 34.8408 64 35.2859 64 35.75V39.25C64 39.7141 64.1844 40.1592 64.5126 40.4874C64.8407 40.8156 65.2859 41 65.75 41H69.25C69.7141 41 70.1593 40.8156 70.4874 40.4874C70.8156 40.1592 71 39.7141 71 39.25V35.75C71 35.2859 70.8156 34.8408 70.4874 34.5126C70.1593 34.1844 69.7141 34 69.25 34H65.75ZM44.75 44.5C44.2859 44.5 43.8408 44.6844 43.5126 45.0126C43.1844 45.3408 43 45.7859 43 46.25V49.75C43 50.2141 43.1844 50.6592 43.5126 50.9874C43.8408 51.3156 44.2859 51.5 44.75 51.5H48.25C48.7141 51.5 49.1592 51.3156 49.4874 50.9874C49.8156 50.6592 50 50.2141 50 49.75V46.25C50 45.7859 49.8156 45.3408 49.4874 45.0126C49.1592 44.6844 48.7141 44.5 48.25 44.5H44.75ZM55.25 44.5C54.7859 44.5 54.3408 44.6844 54.0126 45.0126C53.6844 45.3408 53.5 45.7859 53.5 46.25V49.75C53.5 50.2141 53.6844 50.6592 54.0126 50.9874C54.3408 51.3156 54.7859 51.5 55.25 51.5H58.75C59.2141 51.5 59.6593 51.3156 59.9874 50.9874C60.3156 50.6592 60.5 50.2141 60.5 49.75V46.25C60.5 45.7859 60.3156 45.3408 59.9874 45.0126C59.6593 44.6844 59.2141 44.5 58.75 44.5H55.25ZM65.75 44.5C65.2859 44.5 64.8407 44.6844 64.5126 45.0126C64.1844 45.3408 64 45.7859 64 46.25V49.75C64 50.2141 64.1844 50.6592 64.5126 50.9874C64.8407 51.3156 65.2859 51.5 65.75 51.5H69.25C69.7141 51.5 70.1593 51.3156 70.4874 50.9874C70.8156 50.6592 71 50.2141 71 49.75V46.25C71 45.7859 70.8156 45.3408 70.4874 45.0126C70.1593 44.6844 69.7141 44.5 69.25 44.5H65.75ZM44.75 55C44.2859 55 43.8408 55.1844 43.5126 55.5126C43.1844 55.8407 43 56.2859 43 56.75V60.25C43 60.7141 43.1844 61.1593 43.5126 61.4874C43.8408 61.8156 44.2859 62 44.75 62H48.25C48.7141 62 49.1592 61.8156 49.4874 61.4874C49.8156 61.1593 50 60.7141 50 60.25V56.75C50 56.2859 49.8156 55.8407 49.4874 55.5126C49.1592 55.1844 48.7141 55 48.25 55H44.75ZM55.25 55C54.7859 55 54.3408 55.1844 54.0126 55.5126C53.6844 55.8407 53.5 56.2859 53.5 56.75V60.25C53.5 60.7141 53.6844 61.1593 54.0126 61.4874C54.3408 61.8156 54.7859 62 55.25 62H58.75C59.2141 62 59.6593 61.8156 59.9874 61.4874C60.3156 61.1593 60.5 60.7141 60.5 60.25V56.75C60.5 56.2859 60.3156 55.8407 59.9874 55.5126C59.6593 55.1844 59.2141 55 58.75 55H55.25Z" fill="white"/>
<defs>
<filter id="filter0_d_0_1" x="0" y="0" width="122" height="122" filterUnits="userSpaceOnUse" color-interpolation-filters="sRGB">
<feFlood flood-opacity="0" result="BackgroundImageFix"/>
<feColorMatrix in="SourceAlpha" type="matrix" values="0 0 0 0 0 0 0 0 0 0 0 0 0 0 0 0 0 0 127 0" result="hardAlpha"/>
<feMorphology radius="1" operator="dilate" in="SourceAlpha" result="effect1_dropShadow_0_1"/>
<feOffset dx="4" dy="4"/>
<feGaussianBlur stdDeviation="5"/>
<feComposite in2="hardAlpha" operator="out"/>
<feColorMatrix type="matrix" values="0 0 0 0 0 0 0 0 0 0 0 0 0 0 0 0 0 0 0.25 0"/>
<feBlend mode="normal" in2="BackgroundImageFix" result="effect1_dropShadow_0_1"/>
<feBlend mode="normal" in="SourceGraphic" in2="effect1_dropShadow_0_1" result="shape"/>
</filter>
</defs>
</svg>
