<svg width="118" height="47" viewBox="0 0 118 47" fill="none" xmlns="http://www.w3.org/2000/svg">
<rect width="118" height="47" rx="4" fill="#7BA0FF"/>
<path d="M37.2161 16.415L37.0841 15.749C36.9651 15.151 36.6961 14.586 36.0831 14.37C35.8861 14.301 35.6631 14.272 35.5131 14.129C35.3611 13.986 35.3171 13.763 35.2821 13.557C35.2171 13.179 35.1571 12.801 35.0901 12.424C35.0331 12.099 34.9881 11.734 34.8401 11.437C34.6451 11.037 34.2431 10.803 33.8441 10.649C33.6393 10.5724 33.4303 10.5076 33.2181 10.455C32.2181 10.192 31.1681 10.095 30.1411 10.039C28.9078 9.97115 27.6713 9.99187 26.4411 10.101C25.5261 10.184 24.5611 10.285 23.6911 10.601C23.3731 10.717 23.0451 10.857 22.8031 11.102C22.5061 11.404 22.4101 11.872 22.6261 12.248C22.7801 12.515 23.0411 12.704 23.3181 12.828C23.6781 12.99 24.0551 13.112 24.4411 13.194C25.5161 13.432 26.6301 13.525 27.7281 13.564C28.9461 13.614 30.1651 13.574 31.3781 13.446C31.6771 13.413 31.9761 13.373 32.2741 13.327C32.6261 13.273 32.8521 12.814 32.7481 12.493C32.6241 12.11 32.2911 11.962 31.9141 12.02C31.4481 12.094 30.9541 12.128 30.5321 12.166C29.3551 12.246 28.1741 12.248 26.9961 12.172C26.6095 12.1464 26.2237 12.1107 25.8391 12.065C25.7531 12.055 25.6591 12.04 25.5811 12.029C25.3381 11.993 25.0971 11.949 24.8571 11.899C24.7461 11.872 24.7461 11.714 24.8571 11.687H24.8621C25.1391 11.627 25.4191 11.579 25.7001 11.54H25.7021C25.8331 11.531 25.9651 11.508 26.0961 11.492C27.234 11.3739 28.3787 11.3338 29.5221 11.372C30.1961 11.391 30.8691 11.439 31.5391 11.516L31.7671 11.547C32.0341 11.587 32.3001 11.635 32.5651 11.692C32.9571 11.777 33.4601 11.805 33.6351 12.234C33.6901 12.371 33.7151 12.522 33.7461 12.665L34.0651 14.149C34.0718 14.1808 34.072 14.2137 34.0655 14.2455C34.059 14.2774 34.046 14.3076 34.0273 14.3342C34.0087 14.3609 33.9847 14.3834 33.957 14.4004C33.9292 14.4174 33.8983 14.4285 33.8661 14.433H33.8631C33.8261 14.439 33.7881 14.443 33.7511 14.448C32.1781 14.6486 30.5938 14.7472 29.0081 14.743C27.4369 14.7413 25.8674 14.6398 24.3091 14.439C24.1691 14.422 24.0161 14.397 23.8921 14.379C23.5661 14.331 23.2431 14.271 22.9191 14.218C22.5261 14.153 22.1511 14.186 21.7961 14.379C21.5061 14.539 21.2691 14.783 21.1211 15.08C20.9671 15.396 20.9221 15.74 20.8541 16.08C20.7851 16.42 20.6781 16.787 20.7191 17.136C20.8061 17.889 21.3321 18.501 22.0891 18.638C25.8325 19.306 29.6526 19.4326 33.4321 19.014C33.5039 19.0058 33.5766 19.0138 33.6449 19.0375C33.7131 19.0612 33.7752 19.0999 33.8266 19.1507C33.8779 19.2016 33.9172 19.2633 33.9415 19.3314C33.9658 19.3994 33.9745 19.4721 33.9671 19.544L33.8961 20.241L32.8781 30.148C32.8371 30.558 32.8311 30.98 32.7531 31.385C32.6311 32.022 32.2001 32.413 31.5711 32.556C30.9941 32.687 30.4061 32.756 29.8151 32.761C29.1591 32.765 28.5051 32.736 27.8491 32.739C27.1501 32.743 26.2931 32.679 25.7541 32.159C25.2791 31.701 25.2141 30.985 25.1491 30.366L24.4181 23.353L24.0961 20.259C24.0591 19.908 23.8101 19.564 23.4181 19.581C23.0821 19.596 22.7001 19.881 22.7401 20.26L22.9681 22.445L23.9171 31.557C24.0641 32.901 25.0911 33.625 26.3631 33.829C27.1051 33.949 27.8661 33.973 28.6201 33.985C29.5861 34.001 30.5621 34.038 31.5121 33.863C32.9201 33.605 33.9771 32.665 34.1281 31.206C34.4681 27.874 34.8111 24.543 35.1521 21.211L35.3671 19.124C35.3776 19.0205 35.4213 18.9231 35.4915 18.8464C35.5618 18.7697 35.6549 18.7176 35.7571 18.698C36.1591 18.62 36.5441 18.486 36.8311 18.18C37.2861 17.692 37.3771 17.057 37.2161 16.415ZM35.7381 17.187C35.5931 17.324 35.3751 17.388 35.1601 17.42C32.7441 17.779 30.2941 17.96 27.8521 17.88C26.1041 17.82 24.3751 17.626 22.6451 17.382C22.4751 17.358 22.2921 17.327 22.1751 17.202C21.9551 16.966 22.0641 16.492 22.1211 16.207C22.1731 15.947 22.2731 15.598 22.5841 15.561C23.0681 15.504 23.6301 15.709 24.1101 15.781C24.6871 15.869 25.2661 15.94 25.8471 15.993C28.3271 16.219 30.8491 16.183 33.3191 15.853C33.7691 15.793 34.2181 15.723 34.6641 15.643C35.0631 15.571 35.5041 15.437 35.7441 15.849C35.9101 16.13 35.9321 16.506 35.9061 16.823C35.8982 16.9614 35.8377 17.0916 35.7371 17.187H35.7381Z" fill="#FFFFFE"/>
<path d="M26.4704 21.8751C27.7394 21.8751 28.7174 21.4571 29.5794 21.0871C30.3484 20.7581 31.0134 20.4741 31.8394 20.4741C32.2903 20.4783 32.7373 20.5588 33.1614 20.7121L32.2214 30.6621C32.1564 31.4421 31.5054 32.0421 30.7224 32.0421C30.7224 32.0421 29.3834 32.1071 28.9364 32.1071C28.5214 32.1071 27.2784 32.0421 27.2784 32.0421C26.4954 32.0421 25.8434 31.4421 25.7784 30.6621L24.9014 21.6581C25.4122 21.8008 25.94 21.8738 26.4704 21.8751Z" fill="#4053FF"/>
<path d="M55.194 27.624H59.226V30H52.116V17.364H55.194V27.624ZM65.2661 30.144C64.2821 30.144 63.3941 29.934 62.6021 29.514C61.8221 29.094 61.2041 28.494 60.7481 27.714C60.3041 26.934 60.0821 26.022 60.0821 24.978C60.0821 23.946 60.3101 23.04 60.7661 22.26C61.2221 21.468 61.8461 20.862 62.6381 20.442C63.4301 20.022 64.3181 19.812 65.3021 19.812C66.2861 19.812 67.1741 20.022 67.9661 20.442C68.7581 20.862 69.3821 21.468 69.8381 22.26C70.2941 23.04 70.5221 23.946 70.5221 24.978C70.5221 26.01 70.2881 26.922 69.8201 27.714C69.3641 28.494 68.7341 29.094 67.9301 29.514C67.1381 29.934 66.2501 30.144 65.2661 30.144ZM65.2661 27.48C65.8541 27.48 66.3521 27.264 66.7601 26.832C67.1801 26.4 67.3901 25.782 67.3901 24.978C67.3901 24.174 67.1861 23.556 66.7781 23.124C66.3821 22.692 65.8901 22.476 65.3021 22.476C64.7021 22.476 64.2041 22.692 63.8081 23.124C63.4121 23.544 63.2141 24.162 63.2141 24.978C63.2141 25.782 63.4061 26.4 63.7901 26.832C64.1861 27.264 64.6781 27.48 65.2661 27.48ZM75.9711 19.812C76.6791 19.812 77.2971 19.956 77.8251 20.244C78.3651 20.532 78.7791 20.91 79.0671 21.378V19.956H82.1451V29.982C82.1451 30.906 81.9591 31.74 81.5871 32.484C81.2271 33.24 80.6691 33.84 79.9131 34.284C79.1691 34.728 78.2391 34.95 77.1231 34.95C75.6351 34.95 74.4291 34.596 73.5051 33.888C72.5811 33.192 72.0531 32.244 71.9211 31.044H74.9631C75.0591 31.428 75.2871 31.728 75.6471 31.944C76.0071 32.172 76.4511 32.286 76.9791 32.286C77.6151 32.286 78.1191 32.1 78.4911 31.728C78.8751 31.368 79.0671 30.786 79.0671 29.982V28.56C78.7671 29.028 78.3531 29.412 77.8251 29.712C77.2971 30 76.6791 30.144 75.9711 30.144C75.1431 30.144 74.3931 29.934 73.7211 29.514C73.0491 29.082 72.5151 28.476 72.1191 27.696C71.7351 26.904 71.5431 25.992 71.5431 24.96C71.5431 23.928 71.7351 23.022 72.1191 22.242C72.5151 21.462 73.0491 20.862 73.7211 20.442C74.3931 20.022 75.1431 19.812 75.9711 19.812ZM79.0671 24.978C79.0671 24.21 78.8511 23.604 78.4191 23.16C77.9991 22.716 77.4831 22.494 76.8711 22.494C76.2591 22.494 75.7371 22.716 75.3051 23.16C74.8851 23.592 74.6751 24.192 74.6751 24.96C74.6751 25.728 74.8851 26.34 75.3051 26.796C75.7371 27.24 76.2591 27.462 76.8711 27.462C77.4831 27.462 77.9991 27.24 78.4191 26.796C78.8511 26.352 79.0671 25.746 79.0671 24.978ZM85.9199 18.912C85.3799 18.912 84.9359 18.756 84.5879 18.444C84.2519 18.12 84.0839 17.724 84.0839 17.256C84.0839 16.776 84.2519 16.38 84.5879 16.068C84.9359 15.744 85.3799 15.582 85.9199 15.582C86.4479 15.582 86.8799 15.744 87.2159 16.068C87.5639 16.38 87.7379 16.776 87.7379 17.256C87.7379 17.724 87.5639 18.12 87.2159 18.444C86.8799 18.756 86.4479 18.912 85.9199 18.912ZM87.4499 19.956V30H84.3719V19.956H87.4499ZM95.8005 19.848C96.9765 19.848 97.9125 20.232 98.6085 21C99.3165 21.756 99.6705 22.8 99.6705 24.132V30H96.6105V24.546C96.6105 23.874 96.4365 23.352 96.0885 22.98C95.7405 22.608 95.2725 22.422 94.6845 22.422C94.0965 22.422 93.6285 22.608 93.2805 22.98C92.9325 23.352 92.7585 23.874 92.7585 24.546V30H89.6805V19.956H92.7585V21.288C93.0705 20.844 93.4905 20.496 94.0185 20.244C94.5465 19.98 95.1405 19.848 95.8005 19.848Z" fill="#FFFFFE"/>
</svg>
