<svg width="131" height="47" viewBox="0 0 131 47" fill="none" xmlns="http://www.w3.org/2000/svg">
<rect width="131" height="47" rx="4" fill="#7BA0FF"/>
<mask id="path-2-inside-1_369_659" fill="white">
<path d="M35.8003 25.8721H34.1188C34.004 25.8721 33.8964 25.9234 33.8246 26.0137C33.6572 26.2213 33.4778 26.4215 33.2888 26.612C32.516 27.4018 31.6006 28.0311 30.5933 28.4654C29.5496 28.9154 28.4279 29.1463 27.2949 29.1442C26.1493 29.1442 25.0394 28.9147 23.9966 28.4654C22.9892 28.0311 22.0738 27.4018 21.301 26.612C20.5268 25.8249 19.9095 24.892 19.4832 23.8649C19.0408 22.8002 18.8183 21.6697 18.8183 20.5C18.8183 19.3304 19.0431 18.1998 19.4832 17.1351C19.909 16.1071 20.5213 15.1817 21.301 14.3881C22.0808 13.5944 22.9873 12.9693 23.9966 12.5347C25.0394 12.0854 26.1493 11.8558 27.2949 11.8558C28.4406 11.8558 29.5504 12.0829 30.5933 12.5347C31.6026 12.9693 32.5091 13.5944 33.2888 14.3881C33.4778 14.581 33.6548 14.7812 33.8246 14.9863C33.8964 15.0767 34.0064 15.1279 34.1188 15.1279H35.8003C35.9509 15.1279 36.0442 14.957 35.9605 14.8276C34.126 11.9169 30.9162 9.99027 27.2686 10C21.5378 10.0147 16.9431 14.7641 17.0005 20.6075C17.0579 26.358 21.6455 31 27.2949 31C30.9329 31 34.1284 29.0758 35.9605 26.1724C36.0418 26.043 35.9509 25.8721 35.8003 25.8721ZM37.9266 20.3462L34.5326 17.6113C34.4058 17.5087 34.2217 17.6015 34.2217 17.7651V19.6209H26.7113C26.6061 19.6209 26.52 19.7089 26.52 19.8163V21.1837C26.52 21.2912 26.6061 21.3791 26.7113 21.3791H34.2217V23.2349C34.2217 23.3985 34.4082 23.4913 34.5326 23.3887L37.9266 20.6539C37.9495 20.6356 37.9679 20.6122 37.9807 20.5856C37.9934 20.5589 38 20.5297 38 20.5C38 20.4704 37.9934 20.4411 37.9807 20.4145C37.9679 20.3878 37.9495 20.3645 37.9266 20.3462Z"/>
</mask>
<path d="M35.8003 25.8721H34.1188C34.004 25.8721 33.8964 25.9234 33.8246 26.0137C33.6572 26.2213 33.4778 26.4215 33.2888 26.612C32.516 27.4018 31.6006 28.0311 30.5933 28.4654C29.5496 28.9154 28.4279 29.1463 27.2949 29.1442C26.1493 29.1442 25.0394 28.9147 23.9966 28.4654C22.9892 28.0311 22.0738 27.4018 21.301 26.612C20.5268 25.8249 19.9095 24.892 19.4832 23.8649C19.0408 22.8002 18.8183 21.6697 18.8183 20.5C18.8183 19.3304 19.0431 18.1998 19.4832 17.1351C19.909 16.1071 20.5213 15.1817 21.301 14.3881C22.0808 13.5944 22.9873 12.9693 23.9966 12.5347C25.0394 12.0854 26.1493 11.8558 27.2949 11.8558C28.4406 11.8558 29.5504 12.0829 30.5933 12.5347C31.6026 12.9693 32.5091 13.5944 33.2888 14.3881C33.4778 14.581 33.6548 14.7812 33.8246 14.9863C33.8964 15.0767 34.0064 15.1279 34.1188 15.1279H35.8003C35.9509 15.1279 36.0442 14.957 35.9605 14.8276C34.126 11.9169 30.9162 9.99027 27.2686 10C21.5378 10.0147 16.9431 14.7641 17.0005 20.6075C17.0579 26.358 21.6455 31 27.2949 31C30.9329 31 34.1284 29.0758 35.9605 26.1724C36.0418 26.043 35.9509 25.8721 35.8003 25.8721ZM37.9266 20.3462L34.5326 17.6113C34.4058 17.5087 34.2217 17.6015 34.2217 17.7651V19.6209H26.7113C26.6061 19.6209 26.52 19.7089 26.52 19.8163V21.1837C26.52 21.2912 26.6061 21.3791 26.7113 21.3791H34.2217V23.2349C34.2217 23.3985 34.4082 23.4913 34.5326 23.3887L37.9266 20.6539C37.9495 20.6356 37.9679 20.6122 37.9807 20.5856C37.9934 20.5589 38 20.5297 38 20.5C38 20.4704 37.9934 20.4411 37.9807 20.4145C37.9679 20.3878 37.9495 20.3645 37.9266 20.3462Z" fill="#4053FF"/>
<path d="M33.8246 26.0137L36.938 28.5251L36.9475 28.5133L36.9569 28.5014L33.8246 26.0137ZM33.2888 26.612L30.4492 23.7948L30.4395 23.8046L30.4299 23.8144L33.2888 26.612ZM30.5933 28.4654L29.0099 24.7921L29.0094 24.7923L30.5933 28.4654ZM27.2949 29.1442L27.3022 25.1442H27.2949V29.1442ZM23.9966 28.4654L22.4133 32.1387L22.4139 32.1389L23.9966 28.4654ZM21.301 26.612L24.16 23.8144L24.1527 23.807L21.301 26.612ZM19.4832 23.8649L23.1777 22.3316L23.1769 22.3297L19.4832 23.8649ZM19.4832 17.1351L15.7876 15.6046L15.7866 15.6071L19.4832 17.1351ZM23.9966 12.5347L25.5787 16.2085L25.5793 16.2082L23.9966 12.5347ZM30.5933 12.5347L29.0033 16.2051L29.0112 16.2085L30.5933 12.5347ZM33.2888 14.3881L36.1464 11.589L36.1421 11.5847L33.2888 14.3881ZM33.8246 14.9863L36.9569 12.4986L36.9316 12.4668L36.9057 12.4354L33.8246 14.9863ZM35.9605 14.8276L32.5766 16.9604L32.5891 16.9803L32.6019 17.0001L35.9605 14.8276ZM27.2686 10L27.2789 14L27.2793 14L27.2686 10ZM17.0005 20.6075L13.0007 20.6468L13.0007 20.6474L17.0005 20.6075ZM35.9605 26.1724L39.3433 28.3071L39.3474 28.3006L35.9605 26.1724ZM34.5326 17.6113L32.0167 20.721L32.0228 20.7259L34.5326 17.6113ZM34.2217 19.6209V23.6209H38.2217V19.6209H34.2217ZM34.2217 21.3791H38.2217V17.3791H34.2217V21.3791ZM34.5326 23.3887L32.0228 20.2741L32.0052 20.2883L31.9878 20.3026L34.5326 23.3887ZM37.9266 20.6539L35.4297 17.5288L35.4233 17.534L35.4168 17.5392L37.9266 20.6539ZM35.8003 21.8721H34.1188V29.8721H35.8003V21.8721ZM34.1188 21.8721C32.7971 21.8721 31.531 22.47 30.6923 23.526L36.9569 28.5014C36.2617 29.3768 35.2109 29.8721 34.1188 29.8721V21.8721ZM30.7113 23.5023C30.6308 23.6021 30.5429 23.7004 30.4492 23.7948L36.1285 29.4291C36.4127 29.1426 36.6836 28.8405 36.938 28.5251L30.7113 23.5023ZM30.4299 23.8144C30.0185 24.2348 29.5356 24.5655 29.0099 24.7921L32.1766 32.1387C33.6657 31.4968 35.0135 30.5687 36.1478 29.4096L30.4299 23.8144ZM29.0094 24.7923C28.4665 25.0264 27.8862 25.1453 27.3022 25.1442L27.2876 33.1442C28.9695 33.1472 30.6327 32.8044 32.1771 32.1384L29.0094 24.7923ZM27.2949 25.1442C26.6925 25.1442 26.1214 25.0253 25.5793 24.7918L22.4139 32.1389C23.9575 32.804 25.606 33.1442 27.2949 33.1442V25.1442ZM25.5799 24.7921C25.0543 24.5655 24.5714 24.2348 24.16 23.8144L18.4421 29.4096C19.5763 30.5687 20.9242 31.4968 22.4133 32.1387L25.5799 24.7921ZM24.1527 23.807C23.7411 23.3885 23.4087 22.8881 23.1777 22.3316L15.7888 25.3982C16.4103 26.8958 17.3126 28.2612 18.4493 29.4169L24.1527 23.807ZM23.1769 22.3297C22.9409 21.7619 22.8183 21.154 22.8183 20.5H14.8183C14.8183 22.1853 15.1406 23.8386 15.7896 25.4001L23.1769 22.3297ZM22.8183 20.5C22.8183 19.8515 22.9413 19.2403 23.1799 18.6632L15.7866 15.6071C15.145 17.1592 14.8183 18.8093 14.8183 20.5H22.8183ZM23.1789 18.6656C23.4082 18.1117 23.7347 17.6185 24.1543 17.1914L18.4478 11.5847C17.3079 12.7448 16.4097 14.1025 15.7876 15.6046L23.1789 18.6656ZM24.1543 17.1914C24.5793 16.7588 25.0566 16.4333 25.5787 16.2085L22.4146 8.86084C20.9179 9.50535 19.5822 10.4301 18.4478 11.5847L24.1543 17.1914ZM25.5793 16.2082C26.1214 15.9747 26.6925 15.8558 27.2949 15.8558V7.85585C25.606 7.85585 23.9575 8.19607 22.4139 8.86114L25.5793 16.2082ZM27.2949 15.8558C27.903 15.8558 28.4708 15.9744 29.0033 16.2051L32.1832 8.86427C30.63 8.19144 28.9783 7.85585 27.2949 7.85585V15.8558ZM29.0112 16.2085C29.5332 16.4333 30.0105 16.7588 30.4356 17.1914L36.1421 11.5847C35.0077 10.4301 33.672 9.50535 32.1753 8.86084L29.0112 16.2085ZM30.4313 17.1871C30.5262 17.284 30.6284 17.3981 30.7435 17.5372L36.9057 12.4354C36.6812 12.1643 36.4294 11.8779 36.1464 11.5891L30.4313 17.1871ZM30.6923 17.474C31.5395 18.5407 32.8132 19.1279 34.1188 19.1279V11.1279C35.1995 11.1279 36.2533 11.6126 36.9569 12.4986L30.6923 17.474ZM34.1188 19.1279H35.8003V11.1279H34.1188V19.1279ZM35.8003 19.1279C39.1737 19.1279 41.0955 15.4013 39.3191 12.6551L32.6019 17.0001C30.9929 14.5127 32.7282 11.1279 35.8003 11.1279V19.1279ZM39.3445 12.6948C36.8192 8.68811 32.3632 5.98638 27.2579 6.00005L27.2793 14C29.4691 13.9942 31.4328 15.1457 32.5766 16.9604L39.3445 12.6948ZM27.2584 6.00005C19.2306 6.02057 12.9223 12.6603 13.0007 20.6468L21.0003 20.5682C20.964 16.8679 23.845 14.0088 27.2789 14L27.2584 6.00005ZM13.0007 20.6474C13.0793 28.5153 19.3765 35 27.2949 35V27C23.9144 27 21.0366 24.2008 21.0003 20.5675L13.0007 20.6474ZM27.2949 35C32.3875 35 36.823 32.3009 39.3433 28.3071L32.5777 24.0378C31.4337 25.8507 29.4783 27 27.2949 27V35ZM39.3474 28.3006C41.0126 25.6506 39.2647 21.8721 35.8003 21.8721V29.8721C32.6372 29.8721 31.0711 26.4355 32.5736 24.0443L39.3474 28.3006ZM40.4364 17.2315L37.0424 14.4967L32.0228 20.7259L35.4168 23.4608L40.4364 17.2315ZM37.0485 14.5016C34.1446 12.1522 30.2217 14.4469 30.2217 17.7651H38.2217C38.2217 20.7561 34.6671 22.8653 32.0167 20.721L37.0485 14.5016ZM30.2217 17.7651V19.6209H38.2217V17.7651H30.2217ZM34.2217 15.621H26.7113V23.6209H34.2217V15.621ZM26.7113 15.621C24.3193 15.621 22.52 17.5782 22.52 19.8163H30.52C30.52 21.8395 28.8929 23.6209 26.7113 23.6209V15.621ZM22.52 19.8163V21.1837H30.52V19.8163H22.52ZM22.52 21.1837C22.52 23.4218 24.3193 25.3791 26.7113 25.3791V17.3791C28.8929 17.3791 30.52 19.1605 30.52 21.1837H22.52ZM26.7113 25.3791H34.2217V17.3791H26.7113V25.3791ZM30.2217 21.3791V23.2349H38.2217V21.3791H30.2217ZM30.2217 23.2349C30.2217 26.5338 34.1557 28.8841 37.0774 26.4749L31.9878 20.3026C34.6608 18.0985 38.2217 20.2632 38.2217 23.2349H30.2217ZM37.0424 26.5034L40.4364 23.7685L35.4168 17.5392L32.0228 20.2741L37.0424 26.5034ZM40.4234 23.7789C40.9229 23.3798 41.32 22.8755 41.5906 22.3084L34.3707 18.8628C34.6159 18.349 34.976 17.8913 35.4297 17.5288L40.4234 23.7789ZM41.5906 22.3084C41.8612 21.7415 42 21.1234 42 20.5H34C34 19.936 34.1256 19.3764 34.3707 18.8628L41.5906 22.3084ZM42 20.5C42 19.8767 41.8612 19.2586 41.5906 18.6916L34.3707 22.1373C34.1256 21.6237 34 21.064 34 20.5H42ZM41.5906 18.6916C41.32 18.1245 40.9228 17.6202 40.4234 17.2212L35.4297 23.4712C34.9761 23.1087 34.6159 22.6511 34.3707 22.1373L41.5906 18.6916Z" fill="#4053FF" mask="url(#path-2-inside-1_369_659)"/>
<path d="M52.194 27.624H56.226V30H49.116V17.364H52.194V27.624ZM62.2661 30.144C61.2821 30.144 60.3941 29.934 59.6021 29.514C58.8221 29.094 58.2041 28.494 57.7481 27.714C57.3041 26.934 57.0821 26.022 57.0821 24.978C57.0821 23.946 57.3101 23.04 57.7661 22.26C58.2221 21.468 58.8461 20.862 59.6381 20.442C60.4301 20.022 61.3181 19.812 62.3021 19.812C63.2861 19.812 64.1741 20.022 64.9661 20.442C65.7581 20.862 66.3821 21.468 66.8381 22.26C67.2941 23.04 67.5221 23.946 67.5221 24.978C67.5221 26.01 67.2881 26.922 66.8201 27.714C66.3641 28.494 65.7341 29.094 64.9301 29.514C64.1381 29.934 63.2501 30.144 62.2661 30.144ZM62.2661 27.48C62.8541 27.48 63.3521 27.264 63.7601 26.832C64.1801 26.4 64.3901 25.782 64.3901 24.978C64.3901 24.174 64.1861 23.556 63.7781 23.124C63.3821 22.692 62.8901 22.476 62.3021 22.476C61.7021 22.476 61.2041 22.692 60.8081 23.124C60.4121 23.544 60.2141 24.162 60.2141 24.978C60.2141 25.782 60.4061 26.4 60.7901 26.832C61.1861 27.264 61.6781 27.48 62.2661 27.48ZM72.9711 19.812C73.6791 19.812 74.2971 19.956 74.8251 20.244C75.3651 20.532 75.7791 20.91 76.0671 21.378V19.956H79.1451V29.982C79.1451 30.906 78.9591 31.74 78.5871 32.484C78.2271 33.24 77.6691 33.84 76.9131 34.284C76.1691 34.728 75.2391 34.95 74.1231 34.95C72.6351 34.95 71.4291 34.596 70.5051 33.888C69.5811 33.192 69.0531 32.244 68.9211 31.044H71.9631C72.0591 31.428 72.2871 31.728 72.6471 31.944C73.0071 32.172 73.4511 32.286 73.9791 32.286C74.6151 32.286 75.1191 32.1 75.4911 31.728C75.8751 31.368 76.0671 30.786 76.0671 29.982V28.56C75.7671 29.028 75.3531 29.412 74.8251 29.712C74.2971 30 73.6791 30.144 72.9711 30.144C72.1431 30.144 71.3931 29.934 70.7211 29.514C70.0491 29.082 69.5151 28.476 69.1191 27.696C68.7351 26.904 68.5431 25.992 68.5431 24.96C68.5431 23.928 68.7351 23.022 69.1191 22.242C69.5151 21.462 70.0491 20.862 70.7211 20.442C71.3931 20.022 72.1431 19.812 72.9711 19.812ZM76.0671 24.978C76.0671 24.21 75.8511 23.604 75.4191 23.16C74.9991 22.716 74.4831 22.494 73.8711 22.494C73.2591 22.494 72.7371 22.716 72.3051 23.16C71.8851 23.592 71.6751 24.192 71.6751 24.96C71.6751 25.728 71.8851 26.34 72.3051 26.796C72.7371 27.24 73.2591 27.462 73.8711 27.462C74.4831 27.462 74.9991 27.24 75.4191 26.796C75.8511 26.352 76.0671 25.746 76.0671 24.978ZM87.3479 30.126C86.1599 30.126 85.0679 29.85 84.0719 29.298C83.0879 28.746 82.3019 27.978 81.7139 26.994C81.1379 25.998 80.8499 24.882 80.8499 23.646C80.8499 22.41 81.1379 21.3 81.7139 20.316C82.3019 19.332 83.0879 18.564 84.0719 18.012C85.0679 17.46 86.1599 17.184 87.3479 17.184C88.5359 17.184 89.6219 17.46 90.6059 18.012C91.6019 18.564 92.3819 19.332 92.9459 20.316C93.5219 21.3 93.8099 22.41 93.8099 23.646C93.8099 24.882 93.5219 25.998 92.9459 26.994C92.3699 27.978 91.5899 28.746 90.6059 29.298C89.6219 29.85 88.5359 30.126 87.3479 30.126ZM87.3479 27.318C88.3559 27.318 89.1599 26.982 89.7599 26.31C90.3719 25.638 90.6779 24.75 90.6779 23.646C90.6779 22.53 90.3719 21.642 89.7599 20.982C89.1599 20.31 88.3559 19.974 87.3479 19.974C86.3279 19.974 85.5119 20.304 84.8999 20.964C84.2999 21.624 83.9999 22.518 83.9999 23.646C83.9999 24.762 84.2999 25.656 84.8999 26.328C85.5119 26.988 86.3279 27.318 87.3479 27.318ZM105.44 19.956V30H102.362V28.632C102.05 29.076 101.624 29.436 101.084 29.712C100.556 29.976 99.9683 30.108 99.3203 30.108C98.5523 30.108 97.8743 29.94 97.2863 29.604C96.6983 29.256 96.2423 28.758 95.9183 28.11C95.5943 27.462 95.4323 26.7 95.4323 25.824V19.956H98.4923V25.41C98.4923 26.082 98.6663 26.604 99.0143 26.976C99.3623 27.348 99.8303 27.534 100.418 27.534C101.018 27.534 101.492 27.348 101.84 26.976C102.188 26.604 102.362 26.082 102.362 25.41V19.956H105.44ZM113.249 27.39V30H111.683C110.567 30 109.697 29.73 109.073 29.19C108.449 28.638 108.137 27.744 108.137 26.508V22.512H106.913V19.956H108.137V17.508H111.215V19.956H113.231V22.512H111.215V26.544C111.215 26.844 111.287 27.06 111.431 27.192C111.575 27.324 111.815 27.39 112.151 27.39H113.249Z" fill="#FFFFFE"/>
</svg>
