<svg width="23" height="17" viewBox="0 0 23 17" fill="none" xmlns="http://www.w3.org/2000/svg">
<path d="M13.9091 14.7273H1.63636L1.63391 2.37764L10.989 8.85436C11.1258 8.94902 11.2882 8.99972 11.4545 8.99972C11.6209 8.99972 11.7833 8.94902 11.9201 8.85436L21.2727 2.38091V9.81818H22.9091V1.63636C22.9084 1.20257 22.7358 0.786734 22.4291 0.479997C22.1224 0.17326 21.7065 0.000649227 21.2727 0H1.63636C1.20251 0.000433208 0.786542 0.172975 0.479758 0.479758C0.172974 0.786542 0.000433208 1.20251 0 1.63636V14.7273C0.000649227 15.1611 0.17326 15.5769 0.479997 15.8836C0.786734 16.1904 1.20257 16.363 1.63636 16.3636H13.9091V14.7273ZM19.4719 1.63636L11.4545 7.18691L3.43718 1.63636H19.4719Z" fill="white"/>
</svg>
