<svg width="20" height="20" viewBox="0 0 20 20" fill="none" xmlns="http://www.w3.org/2000/svg">
<path d="M19.579 9.31122L18.0422 7.68904C17.4737 7.089 16.5264 7.089 15.9579 7.68904L14.5519 9.16259C13.8084 9.94184 12.4731 9.68439 11.7049 8.92937C10.8541 8.09303 10.4803 6.37615 10.7258 5.20862C10.7881 4.91224 10.8211 4.60442 10.8211 4.28888C10.8211 1.93337 8.98951 0 6.75789 0C4.52626 0 2.69471 1.93329 2.69471 4.28888C2.69471 5.89679 2.1503 8.35325 1.19713 9.64816C0.448289 10.6655 0 11.9459 0 13.3333V15.2666C0 15.6222 0.27373 15.8888 0.589476 15.8888H5.14588C6.91602 15.8888 8.24323 17.5089 7.89484 19.2445C7.8527 19.4444 7.91584 19.6667 8.06328 19.8222C8.16858 19.9333 8.33702 20 8.4843 20C8.57038 20 8.65312 19.9682 8.73707 19.9492L12.1474 19.1778C12.2527 19.1557 12.358 19.089 12.4421 19L19.579 11.4667C19.8527 11.1778 20 10.7779 20 10.3778C20.0001 9.97786 19.8526 9.60015 19.579 9.31122ZM11.4214 16.1449C10.9076 15.6026 10.9076 14.7532 11.4214 14.2109L14.2846 11.1887C14.8391 10.6033 15.7714 10.6033 16.326 11.1887C16.8398 11.731 16.8398 12.5804 16.326 13.1227L13.4628 16.1449C12.9083 16.7303 11.976 16.7303 11.4214 16.1449ZM6.75789 1.24456C8.33684 1.24456 9.62106 2.60012 9.62106 4.26678C9.62106 5.93345 8.33684 7.289 6.75789 7.289C5.17893 7.289 3.89472 5.93345 3.89472 4.26678C3.89472 2.60012 5.17893 1.24456 6.75789 1.24456ZM1.19997 13.3334C1.19997 10.7113 3.2211 8.57789 5.70525 8.57789H7.81052C8.98343 8.57789 10.0506 9.05645 10.8536 9.84153C11.8664 10.8318 11.4502 12.4199 10.472 13.4444C9.75369 14.1967 8.75881 14.6224 7.71863 14.6224H2.48882C1.77698 14.6224 1.19993 14.0453 1.19997 13.3334ZM9.47845 17.4889C9.59153 16.9283 10.2894 16.7278 10.6827 17.143C11.0593 17.5406 10.8594 18.197 10.3251 18.3171C9.82621 18.4292 9.37733 17.9901 9.47845 17.4889ZM18.7554 10.5578C18.7334 10.5897 18.7025 10.6143 18.6758 10.6424C18.3544 10.9817 17.814 10.9817 17.4926 10.6424L16.779 9.88912C16.4248 9.51522 16.4248 8.9296 16.779 8.55571C16.8843 8.44456 17.0527 8.44456 17.179 8.55571L18.7158 10.1779C18.779 10.2445 18.8 10.3335 18.8 10.3779C18.8 10.4138 18.8 10.4934 18.7554 10.5578Z" fill="white"/>
</svg>
