<svg width="66" height="39" viewBox="0 0 66 39" fill="none" xmlns="http://www.w3.org/2000/svg">
<path d="M33 0C35.5527 0 38.0009 0.991808 39.8059 2.75724C41.6109 4.52267 42.625 6.9171 42.625 9.41379C42.625 11.9105 41.6109 14.3049 39.8059 16.0703C38.0009 17.8358 35.5527 18.8276 33 18.8276C30.4473 18.8276 27.9991 17.8358 26.1941 16.0703C24.3891 14.3049 23.375 11.9105 23.375 9.41379C23.375 6.9171 24.3891 4.52267 26.1941 2.75724C27.9991 0.991808 30.4473 0 33 0M13.75 6.72414C15.29 6.72414 16.72 7.12759 17.9575 7.85379C17.545 11.7 18.7 15.5193 21.065 18.5048C19.69 21.0869 16.94 22.8621 13.75 22.8621C11.562 22.8621 9.46354 22.0119 7.91637 20.4987C6.36919 18.9855 5.5 16.9331 5.5 14.7931C5.5 12.6531 6.36919 10.6007 7.91637 9.08748C9.46354 7.57426 11.562 6.72414 13.75 6.72414M52.25 6.72414C54.438 6.72414 56.5365 7.57426 58.0836 9.08748C59.6308 10.6007 60.5 12.6531 60.5 14.7931C60.5 16.9331 59.6308 18.9855 58.0836 20.4987C56.5365 22.0119 54.438 22.8621 52.25 22.8621C49.06 22.8621 46.31 21.0869 44.935 18.5048C47.3327 15.4774 48.4456 11.6629 48.0425 7.85379C49.28 7.12759 50.71 6.72414 52.25 6.72414M15.125 34.2931C15.125 28.7255 23.1275 24.2069 33 24.2069C42.8725 24.2069 50.875 28.7255 50.875 34.2931V39H15.125V34.2931ZM0 39V34.9655C0 31.2269 5.1975 28.08 12.2375 27.1655C10.615 28.9945 9.625 31.5228 9.625 34.2931V39H0ZM66 39H56.375V34.2931C56.375 31.5228 55.385 28.9945 53.7625 27.1655C60.8025 28.08 66 31.2269 66 34.9655V39Z" fill="white"/>
</svg>
